<svg xmlns="http://www.w3.org/2000/svg" viewBox="0 0 512 512" role="img" aria-label="BREP.io icon">
  <defs>
    <linearGradient id="g1" x1="0" y1="0" x2="1" y2="1">
      <stop offset="0" stop-color="#46B3FF"/>
      <stop offset="1" stop-color="#0A6BFF"/>
    </linearGradient>
    <linearGradient id="g2" x1="0" y1="1" x2="1" y2="0">
      <stop offset="0" stop-color="#0B3B8F"/>
      <stop offset="1" stop-color="#2A8CFF"/>
    </linearGradient>
    <linearGradient id="g3" x1="0" y1="0" x2="0" y2="1">
      <stop offset="0" stop-color="#BFE8FF"/>
      <stop offset="1" stop-color="#2E9CFF"/>
    </linearGradient>
  </defs>

  <g transform="translate(60,70) scale(1.1)">
    <path d="M70 90 L200 35 L320 95 L190 150 Z" fill="url(#g3)"/>
    <path d="M190 150 L320 95 L320 235 L190 290 Z" fill="url(#g2)"/>
    <path d="M70 90 L190 150 L190 290 L70 230 Z" fill="url(#g1)"/>

    <path d="M120 150 L190 185 L190 230 L120 195 Z"
          fill="#1F2937" fill-opacity="0.18"/>

    <g fill="none" stroke-linecap="round" stroke-linejoin="round">
      <path stroke="#1F2937" stroke-width="3" stroke-opacity="0.70"
        d="M200 165 C260 130 310 140 340 180 C370 220 360 290 300 315 C250 335 210 310 195 275"/>
      <path stroke="#1F2937" stroke-width="2" stroke-opacity="0.55"
        d="M220 180 C270 155 310 170 330 200 C345 225 330 270 290 285 C250 300 225 275 215 255"/>
      <path stroke="#1F2937" stroke-width="2" stroke-opacity="0.55"
        d="M240 195 C285 175 315 195 325 215 C335 235 320 260 290 270 C260 280 245 265 235 250"/>
    </g>
  </g>
</svg>
